<?xml version="1.0" encoding="utf-8"?>
<svg version="1.1" width="1003px" height="551px" style="shape-rendering:geometricPrecision; text-rendering:geometricPrecision; image-rendering:optimizeQuality; fill-rule:evenodd; clip-rule:evenodd" xmlns="http://www.w3.org/2000/svg">
  <g>
    <path style="opacity: 0.993; fill: rgb(199, 118, 201);" d="M 575.5,-0.5 C 576.167,-0.5 576.833,-0.5 577.5,-0.5C 584.663,3.24709 591.663,7.24709 598.5,11.5C 596.609,10.4639 594.776,10.4639 593,11.5C 537.333,93.5 481.667,175.5 426,257.5C 425.536,256.906 425.369,256.239 425.5,255.5C 475.5,170.167 525.5,84.8333 575.5,-0.5 Z"/>
  </g>
  <g>
    <path style="opacity: 1; fill: rgb(199, 118, 201);" d="M 424.5,0.5 C 425.638,3.30354 425.805,6.30354 425,9.5C 423.109,13.6111 422.109,17.9444 422,22.5C 418.114,30.823 415.447,39.4896 414,48.5C 411.214,60.8575 407.214,72.8575 402,84.5C 400.739,92.3379 398.906,100.005 396.5,107.5C 385.807,112.847 375.14,118.18 364.5,123.5C 366.522,111.768 370.022,100.435 375,89.5C 375.486,83.1882 377.153,77.1882 380,71.5C 380.975,64.2377 382.975,57.2377 386,50.5C 387.676,42.8133 389.342,35.1466 391,27.5C 392.167,24.5 393.333,21.5 394.5,18.5C 393.675,17.6143 392.675,17.281 391.5,17.5C 402.336,11.5818 413.336,5.91512 424.5,0.5 Z"/>
  </g>
  <g>
    <path style="opacity: 1; fill: rgb(199, 118, 201);" d="M 424.5,0.5 C 424.5,0.166667 424.5,-0.166667 424.5,-0.5C 425.167,-0.5 425.833,-0.5 426.5,-0.5C 426.833,30.5072 426.5,61.5072 425.5,92.5C 415.65,97.2577 405.983,102.258 396.5,107.5C 398.906,100.005 400.739,92.3379 402,84.5C 407.214,72.8575 411.214,60.8575 414,48.5C 415.447,39.4896 418.114,30.823 422,22.5C 422.109,17.9444 423.109,13.6111 425,9.5C 425.805,6.30354 425.638,3.30354 424.5,0.5 Z"/>
  </g>
  <g>
    <path style="opacity: 1; fill: rgb(199, 118, 201);" d="M 598.5,11.5 C 602.818,12.9922 606.818,14.9922 610.5,17.5C 609.325,17.281 608.325,17.6143 607.5,18.5C 533.638,127.58 459.305,236.246 384.5,344.5C 381.515,343.674 378.849,342.341 376.5,340.5C 376.5,340.167 376.5,339.833 376.5,339.5C 390.167,316.167 403.833,292.833 417.5,269.5C 419.664,264.5 422.331,259.833 425.5,255.5C 425.369,256.239 425.536,256.906 426,257.5C 481.667,175.5 537.333,93.5 593,11.5C 594.776,10.4639 596.609,10.4639 598.5,11.5 Z"/>
  </g>
  <g>
    <path style="opacity: 1; fill: rgb(199, 118, 201);" d="M 610.5,17.5 C 613.485,18.3257 616.151,19.659 618.5,21.5C 615.702,22.7063 613.535,24.7063 612,27.5C 539.747,134.34 467.247,241.006 394.5,347.5C 393.675,348.386 392.675,348.719 391.5,348.5C 388.996,347.416 386.663,346.083 384.5,344.5C 459.305,236.246 533.638,127.58 607.5,18.5C 608.325,17.6143 609.325,17.281 610.5,17.5 Z"/>
  </g>
  <g>
    <path style="opacity: 1; fill: rgb(199, 118, 201);" d="M 618.5,21.5 C 622.151,22.6589 625.485,24.3256 628.5,26.5C 626.227,25.2647 624.394,25.5981 623,27.5C 549.667,135.5 476.333,243.5 403,351.5C 401.397,351.871 399.897,352.205 398.5,352.5C 395.968,351.404 393.635,350.071 391.5,348.5C 392.675,348.719 393.675,348.386 394.5,347.5C 467.247,241.006 539.747,134.34 612,27.5C 613.535,24.7063 615.702,22.7063 618.5,21.5 Z"/>
  </g>
  <g>
    <path style="opacity: 1; fill: rgb(199, 118, 201);" d="M 628.5,26.5 C 615.086,50.3301 601.419,73.9968 587.5,97.5C 586.603,96.4019 585.77,96.4019 585,97.5C 526.086,183.66 467.419,269.994 409,356.5C 408.023,355.226 407.189,355.226 406.5,356.5C 403.833,355.167 401.167,353.833 398.5,352.5C 399.897,352.205 401.397,351.871 403,351.5C 476.333,243.5 549.667,135.5 623,27.5C 624.394,25.5981 626.227,25.2647 628.5,26.5 Z"/>
  </g>
  <g>
    <path style="opacity: 1; fill: rgb(199, 118, 201);" d="M 391.5,17.5 C 392.675,17.281 393.675,17.6143 394.5,18.5C 393.333,21.5 392.167,24.5 391,27.5C 389.342,35.1466 387.676,42.8133 386,50.5C 382.975,57.2377 380.975,64.2377 380,71.5C 377.153,77.1882 375.486,83.1882 375,89.5C 370.022,100.435 366.522,111.768 364.5,123.5C 353.201,129.484 341.868,135.484 330.5,141.5C 330.904,133.352 333.071,125.685 337,118.5C 339.084,103.191 343.417,88.5247 350,74.5C 350.743,72.5594 350.576,70.7261 349.5,69C 351.191,65.5991 352.691,62.0991 354,58.5C 354.373,52.2161 355.873,46.2161 358.5,40.5C 357.61,39.0445 357.61,37.7112 358.5,36.5C 358.043,35.7025 357.376,35.3691 356.5,35.5C 368.002,29.2484 379.669,23.2484 391.5,17.5 Z"/>
  </g>
  <g>
    <path style="opacity: 0.995; fill: rgb(199, 118, 201);" d="M 628.5,26.5 C 648.963,36.5647 669.296,46.898 689.5,57.5C 688.933,85.8392 688.1,114.173 687,142.5C 686.685,144.586 686.185,146.586 685.5,148.5C 653.119,131.309 620.452,114.643 587.5,98.5C 587.5,98.1667 587.5,97.8333 587.5,97.5C 601.419,73.9968 615.086,50.3301 628.5,26.5 Z"/>
  </g>
  <g>
    <path style="opacity: 1; fill: rgb(199, 118, 201);" d="M 356.5,35.5 C 357.376,35.3691 358.043,35.7025 358.5,36.5C 357.61,37.7112 357.61,39.0445 358.5,40.5C 355.873,46.2161 354.373,52.2161 354,58.5C 352.691,62.0991 351.191,65.5991 349.5,69C 350.576,70.7261 350.743,72.5594 350,74.5C 343.417,88.5247 339.084,103.191 337,118.5C 333.071,125.685 330.904,133.352 330.5,141.5C 319.343,146.911 308.343,152.578 297.5,158.5C 300.477,148.712 302.643,138.712 304,128.5C 306.313,121.103 308.813,113.769 311.5,106.5C 311.291,105.914 310.957,105.414 310.5,105C 312.254,102.138 313.921,99.3046 315.5,96.5C 314.456,94.2324 314.289,91.8991 315,89.5C 318.153,77.8516 321.32,66.1849 324.5,54.5C 323.675,53.6143 322.675,53.281 321.5,53.5C 333.002,47.2484 344.669,41.2484 356.5,35.5 Z"/>
  </g>
  <g>
    <path style="opacity: 0.998; fill: rgb(199, 118, 201);" d="M 689.5,57.5 C 700.201,63.1829 710.868,68.8496 721.5,74.5C 720.5,74.5 719.5,74.5 718.5,74.5C 717.454,104.233 716.121,133.899 714.5,163.5C 704.99,158.245 695.324,153.245 685.5,148.5C 686.185,146.586 686.685,144.586 687,142.5C 688.1,114.173 688.933,85.8392 689.5,57.5 Z"/>
  </g>
  <g>
    <path style="opacity: 1; fill: rgb(199, 118, 201);" d="M 288.5,70.5 C 289.497,70.4701 290.164,70.9701 290.5,72C 285.77,82.3298 282.937,93.1631 282,104.5C 279.066,114.943 275.733,125.276 272,135.5C 271.667,139.167 271.333,142.833 271,146.5C 267.096,156.782 263.263,167.115 259.5,177.5C 256.485,179.674 253.151,181.341 249.5,182.5C 243.319,185.757 236.985,188.757 230.5,191.5C 232.844,184.299 234.678,176.966 236,169.5C 240.362,159.618 243.029,149.285 244,138.5C 245.136,134.757 246.47,131.09 248,127.5C 249.915,114.267 252.748,101.267 256.5,88.5C 255.5,88.5 254.5,88.5 253.5,88.5C 265.002,82.2484 276.669,76.2484 288.5,70.5 Z"/>
  </g>
  <g>
    <path style="opacity: 1; fill: rgb(199, 118, 201);" d="M 321.5,53.5 C 322.675,53.281 323.675,53.6143 324.5,54.5C 321.32,66.1849 318.153,77.8516 315,89.5C 314.289,91.8991 314.456,94.2324 315.5,96.5C 313.921,99.3046 312.254,102.138 310.5,105C 310.957,105.414 311.291,105.914 311.5,106.5C 308.813,113.769 306.313,121.103 304,128.5C 302.643,138.712 300.477,148.712 297.5,158.5C 284.807,164.847 272.14,171.18 259.5,177.5C 263.263,167.115 267.096,156.782 271,146.5C 271.333,142.833 271.667,139.167 272,135.5C 275.733,125.276 279.066,114.943 282,104.5C 282.937,93.1631 285.77,82.3298 290.5,72C 290.164,70.9701 289.497,70.4701 288.5,70.5C 299.336,64.5818 310.336,58.9151 321.5,53.5 Z"/>
  </g>
  <g>
    <path style="opacity: 0.999; fill: rgb(199, 118, 201);" d="M 721.5,74.5 C 729.647,77.7387 737.314,81.7387 744.5,86.5C 743.732,87.2625 743.232,88.2625 743,89.5C 741.925,117.828 741.092,146.162 740.5,174.5C 739.5,174.5 738.5,174.5 737.5,174.5C 729.707,171.104 722.041,167.437 714.5,163.5C 716.121,133.899 717.454,104.233 718.5,74.5C 719.5,74.5 720.5,74.5 721.5,74.5 Z"/>
  </g>
  <g>
    <path style="opacity: 0.987; fill: rgb(199, 118, 201);" d="M 587.5,97.5 C 587.5,97.8333 587.5,98.1667 587.5,98.5C 533.924,188.079 479.924,277.412 425.5,366.5C 419.298,362.899 412.964,359.566 406.5,356.5C 407.189,355.226 408.023,355.226 409,356.5C 467.419,269.994 526.086,183.66 585,97.5C 585.77,96.4019 586.603,96.4019 587.5,97.5 Z"/>
  </g>
  <g>
    <path style="opacity: 0.998; fill: rgb(199, 118, 201);" d="M 744.5,86.5 C 754.645,90.7382 764.312,95.7382 773.5,101.5C 772.191,103.571 771.525,106.071 771.5,109C 770.708,136.02 769.374,162.853 767.5,189.5C 765.716,189.107 764.05,188.441 762.5,187.5C 759.232,185.866 755.899,184.199 752.5,182.5C 747.333,180.084 742.333,177.418 737.5,174.5C 738.5,174.5 739.5,174.5 740.5,174.5C 741.092,146.162 741.925,117.828 743,89.5C 743.232,88.2625 743.732,87.2625 744.5,86.5 Z"/>
  </g>
  <g>
    <path style="opacity: 1; fill: rgb(199, 118, 201);" d="M 253.5,88.5 C 254.5,88.5 255.5,88.5 256.5,88.5C 252.748,101.267 249.915,114.267 248,127.5C 246.47,131.09 245.136,134.757 244,138.5C 243.029,149.285 240.362,159.618 236,169.5C 234.678,176.966 232.844,184.299 230.5,191.5C 230.5,191.833 230.5,192.167 230.5,192.5C 218.883,197.642 207.55,203.308 196.5,209.5C 198.046,199.164 200.88,189.164 205,179.5C 209.506,155.155 215.339,131.155 222.5,107.5C 222.263,104.937 221.763,104.937 221,107.5C 220.329,106.748 219.496,106.414 218.5,106.5C 230.002,100.248 241.669,94.2484 253.5,88.5 Z"/>
  </g>
  <g>
    <path style="opacity: 0.998; fill: rgb(199, 118, 201);" d="M 773.5,101.5 C 783.151,105.659 792.484,110.325 801.5,115.5C 800.5,115.5 799.5,115.5 798.5,115.5C 797.101,144.81 796.101,174.144 795.5,203.5C 792.167,202.167 788.833,200.833 785.5,199.5C 779.5,196.167 773.5,192.833 767.5,189.5C 769.374,162.853 770.708,136.02 771.5,109C 771.525,106.071 772.191,103.571 773.5,101.5 Z"/>
  </g>
  <g>
    <path style="opacity: 1; fill: rgb(199, 118, 201);" d="M 196.5,209.5 C 183.653,215.42 171.32,222.087 159.5,229.5C 154.472,227.324 149.806,224.657 145.5,221.5C 157.776,189.004 170.443,156.67 183.5,124.5C 195.002,118.248 206.669,112.248 218.5,106.5C 219.496,106.414 220.329,106.748 221,107.5C 221.763,104.937 222.263,104.937 222.5,107.5C 215.339,131.155 209.506,155.155 205,179.5C 200.88,189.164 198.046,199.164 196.5,209.5 Z"/>
  </g>
  <g>
    <path style="opacity: 0.996; fill: rgb(199, 118, 201);" d="M 801.5,115.5 C 809.332,119.249 816.999,123.249 824.5,127.5C 823.933,155.839 823.1,184.173 822,212.5C 821.79,214.058 821.29,215.391 820.5,216.5C 815.167,214.167 809.833,211.833 804.5,209.5C 801.328,207.748 798.328,205.748 795.5,203.5C 796.101,174.144 797.101,144.81 798.5,115.5C 799.5,115.5 800.5,115.5 801.5,115.5 Z"/>
  </g>
  <g>
    <path style="opacity: 0.997; fill: rgb(199, 118, 201);" d="M 824.5,127.5 C 833.979,131.405 842.979,136.072 851.5,141.5C 850.689,166.165 849.856,190.831 849,215.5C 848.857,219.721 848.023,223.721 846.5,227.5C 845.609,228.11 844.609,228.443 843.5,228.5C 835.575,224.868 827.909,220.868 820.5,216.5C 821.29,215.391 821.79,214.058 822,212.5C 823.1,184.173 823.933,155.839 824.5,127.5 Z"/>
  </g>
  <g>
    <path style="opacity: 1; fill: rgb(199, 118, 201);" d="M 183.5,124.5 C 170.443,156.67 157.776,189.004 145.5,221.5C 123.22,210.36 100.886,199.193 78.5,188C 75.6222,186.401 72.9555,184.567 70.5,182.5C 108.064,162.885 145.73,143.552 183.5,124.5 Z"/>
  </g>
  <g>
    <path style="opacity: 0.998; fill: rgb(199, 118, 201);" d="M 851.5,141.5 C 860.979,145.405 869.979,150.072 878.5,155.5C 879.387,173.437 879.22,191.437 878,209.5C 877.283,210.044 876.783,210.711 876.5,211.5C 866.773,217.199 856.773,222.532 846.5,227.5C 848.023,223.721 848.857,219.721 849,215.5C 849.856,190.831 850.689,166.165 851.5,141.5 Z"/>
  </g>
  <g>
    <path style="opacity: 0.992; fill: rgb(199, 118, 201);" d="M 878.5,155.5 C 896.915,163.874 914.915,173.041 932.5,183C 913.936,192.782 895.269,202.282 876.5,211.5C 876.783,210.711 877.283,210.044 878,209.5C 879.22,191.437 879.387,173.437 878.5,155.5 Z"/>
  </g>
  <g>
    <path style="opacity: 0.996; fill: rgb(199, 118, 201);" d="M 249.5,182.5 C 254.167,185.167 258.833,187.833 263.5,190.5C 262.5,190.5 261.5,190.5 260.5,190.5C 260.175,220.907 260.508,251.24 261.5,281.5C 251.002,276.418 240.669,271.085 230.5,265.5C 230.5,241.167 230.5,216.833 230.5,192.5C 230.5,192.167 230.5,191.833 230.5,191.5C 236.985,188.757 243.319,185.757 249.5,182.5 Z"/>
  </g>
  <g>
    <path style="opacity: 0.838; fill: rgb(199, 118, 201);" d="M 752.5,182.5 C 755.899,184.199 759.232,185.866 762.5,187.5C 737.762,227.973 712.762,268.306 687.5,308.5C 675.824,315.339 663.824,321.673 651.5,327.5C 650.761,327.631 650.094,327.464 649.5,327C 677.231,283.029 704.565,238.862 731.5,194.5C 738.337,190.247 745.337,186.247 752.5,182.5 Z"/>
  </g>
  <g>
    <path style="opacity: 0.995; fill: rgb(199, 118, 201);" d="M 230.5,192.5 C 230.5,216.833 230.5,241.167 230.5,265.5C 206.704,253.769 183.038,241.769 159.5,229.5C 171.32,222.087 183.653,215.42 196.5,209.5C 207.55,203.308 218.883,197.642 230.5,192.5 Z"/>
  </g>
  <g>
    <path style="opacity: 0.773; fill: rgb(199, 118, 201);" d="M 762.5,187.5 C 764.05,188.441 765.716,189.107 767.5,189.5C 773.5,192.833 779.5,196.167 785.5,199.5C 766.337,228.487 747.67,257.82 729.5,287.5C 715.783,295.025 701.783,302.025 687.5,308.5C 712.762,268.306 737.762,227.973 762.5,187.5 Z"/>
  </g>
  <g>
    <path style="opacity: 0.754; fill: rgb(199, 118, 201);" d="M 785.5,199.5 C 788.833,200.833 792.167,202.167 795.5,203.5C 798.328,205.748 801.328,207.748 804.5,209.5C 792.079,228.467 780.412,247.467 769.5,266.5C 756.517,273.993 743.184,280.993 729.5,287.5C 747.67,257.82 766.337,228.487 785.5,199.5 Z"/>
  </g>
  <g>
    <path style="opacity: 0.997; fill: rgb(199, 118, 201);" d="M 263.5,190.5 C 274.14,195.82 284.807,201.153 295.5,206.5C 294.508,237.093 294.175,267.76 294.5,298.5C 283.336,293.085 272.336,287.418 261.5,281.5C 260.508,251.24 260.175,220.907 260.5,190.5C 261.5,190.5 262.5,190.5 263.5,190.5 Z"/>
  </g>
  <g>
    <path style="opacity: 0.875; fill: rgb(199, 118, 201);" d="M 731.5,194.5 C 704.565,238.862 677.231,283.029 649.5,327C 650.094,327.464 650.761,327.631 651.5,327.5C 641.151,333.341 630.484,338.675 619.5,343.5C 646.942,298.885 674.609,254.385 702.5,210C 702.272,209.601 701.938,209.435 701.5,209.5C 711.182,203.992 721.182,198.992 731.5,194.5 Z"/>
  </g>
  <g>
    <path style="opacity: 0.996; fill: rgb(199, 118, 201);" d="M 295.5,206.5 C 306.518,211.674 317.185,217.34 327.5,223.5C 326.502,253.995 326.169,284.662 326.5,315.5C 315.799,309.817 305.132,304.15 294.5,298.5C 294.175,267.76 294.508,237.093 295.5,206.5 Z"/>
  </g>
  <g>
    <path style="opacity: 0.906; fill: rgb(199, 118, 201);" d="M 701.5,209.5 C 701.938,209.435 702.272,209.601 702.5,210C 674.609,254.385 646.942,298.885 619.5,343.5C 610.312,349.262 600.645,354.262 590.5,358.5C 590.491,356.692 590.991,355.025 592,353.5C 618.375,311.249 644.875,269.082 671.5,227C 670.552,226.517 669.552,226.351 668.5,226.5C 679.309,220.595 690.309,214.928 701.5,209.5 Z"/>
  </g>
  <g>
    <path style="opacity: 0.655; fill: rgb(199, 118, 201);" d="M 804.5,209.5 C 809.833,211.833 815.167,214.167 820.5,216.5C 827.909,220.868 835.575,224.868 843.5,228.5C 819.154,241.674 794.487,254.34 769.5,266.5C 780.412,247.467 792.079,228.467 804.5,209.5 Z"/>
  </g>
  <g>
    <path style="opacity: 0.996; fill: rgb(199, 118, 201);" d="M 327.5,223.5 C 343.997,231.582 360.33,239.915 376.5,248.5C 375.167,278.833 375.167,309.167 376.5,339.5C 376.5,339.833 376.5,340.167 376.5,340.5C 359.86,332.18 343.193,323.847 326.5,315.5C 326.169,284.662 326.502,253.995 327.5,223.5 Z"/>
  </g>
  <g>
    <path style="opacity: 0.937; fill: rgb(199, 118, 201);" d="M 668.5,226.5 C 669.552,226.351 670.552,226.517 671.5,227C 644.875,269.082 618.375,311.249 592,353.5C 590.991,355.025 590.491,356.692 590.5,358.5C 586.13,361.503 581.463,364.17 576.5,366.5C 575.502,357.525 575.168,348.525 575.5,339.5C 594.538,307.779 613.871,276.112 633.5,244.5C 645.002,238.248 656.669,232.248 668.5,226.5 Z"/>
  </g>
  <g>
    <path style="opacity: 0.957; fill: rgb(199, 118, 201);" d="M 633.5,244.5 C 613.871,276.112 594.538,307.779 575.5,339.5C 575.167,317.49 575.5,295.49 576.5,273.5C 595.397,263.552 614.397,253.885 633.5,244.5 Z"/>
  </g>
  <g>
    <path style="opacity: 0.997; fill: rgb(199, 118, 201);" d="M 376.5,248.5 C 390.296,255.232 403.963,262.232 417.5,269.5C 403.833,292.833 390.167,316.167 376.5,339.5C 375.167,309.167 375.167,278.833 376.5,248.5 Z"/>
  </g>
  <g>
    <path style="opacity: 0.875; fill: rgb(223, 223, 223);" d="M 152.5,392.5 C 152.5,433.5 152.5,474.5 152.5,515.5C 149.5,515.5 146.5,515.5 143.5,515.5C 143.826,511.116 143.492,506.783 142.5,502.5C 140.244,507.421 136.91,511.421 132.5,514.5C 133.123,507.745 132.456,501.412 130.5,495.5C 140.931,488.753 145.098,479.086 143,466.5C 142.151,455.487 136.318,449.154 125.5,447.5C 126.462,440.588 126.795,433.588 126.5,426.5C 129.516,426.841 132.182,428.007 134.5,430C 137.542,433.269 140.209,436.769 142.5,440.5C 143.499,424.514 143.833,408.514 143.5,392.5C 146.5,392.5 149.5,392.5 152.5,392.5 Z"/>
  </g>
  <g>
    <path style="opacity: 0.779; fill: rgb(223, 223, 223);" d="M 152.5,392.5 C 155.833,392.5 159.167,392.5 162.5,392.5C 162.5,433.5 162.5,474.5 162.5,515.5C 159.167,515.5 155.833,515.5 152.5,515.5C 152.5,474.5 152.5,433.5 152.5,392.5 Z"/>
  </g>
  <g>
    <path style="opacity: 0.876; fill: rgb(223, 223, 223);" d="M 722.5,392.5 C 722.5,433.5 722.5,474.5 722.5,515.5C 721.167,515.5 719.833,515.5 718.5,515.5C 718.666,511.154 718.499,506.821 718,502.5C 716.114,506.958 713.281,510.625 709.5,513.5C 709.823,506.978 709.49,500.645 708.5,494.5C 713.373,491.117 716.539,486.45 718,480.5C 718.667,474.5 718.667,468.5 718,462.5C 714.936,452.261 708.103,447.261 697.5,447.5C 698.833,440.167 698.833,432.833 697.5,425.5C 707.074,426.621 713.741,431.621 717.5,440.5C 718.499,424.514 718.833,408.514 718.5,392.5C 719.833,392.5 721.167,392.5 722.5,392.5 Z"/>
  </g>
  <g>
    <path style="opacity: 0.859; fill: rgb(223, 223, 223);" d="M 722.5,392.5 C 727.833,392.5 733.167,392.5 738.5,392.5C 738.5,433.5 738.5,474.5 738.5,515.5C 733.167,515.5 727.833,515.5 722.5,515.5C 722.5,474.5 722.5,433.5 722.5,392.5 Z"/>
  </g>
  <g>
    <path style="opacity: 0.875; fill: rgb(223, 223, 223);" d="M 38.5,389.5 C 41.456,390.137 44.456,390.637 47.5,391C 51.0353,391.663 54.0353,393.163 56.5,395.5C 56.5,418.833 56.5,442.167 56.5,465.5C 50.8199,468.616 44.8199,470.95 38.5,472.5C 38.5,464.5 38.5,456.5 38.5,448.5C 52.8279,443.376 56.9945,433.71 51,419.5C 47.8952,415.199 43.7285,412.866 38.5,412.5C 38.5,404.833 38.5,397.167 38.5,389.5 Z"/>
  </g>
  <g>
    <path style="opacity: 0.96; fill: rgb(223, 223, 223);" d="M 38.5,389.5 C 38.5,397.167 38.5,404.833 38.5,412.5C 27.1386,413.695 20.9719,420.029 20,431.5C 19.5012,435.486 19.3345,439.486 19.5,443.5C 12.8333,443.5 6.16667,443.5 -0.5,443.5C -0.5,437.833 -0.5,432.167 -0.5,426.5C 2.42642,403.574 15.4264,391.241 38.5,389.5 Z"/>
  </g>
  <g>
    <path style="opacity: 0.871; fill: rgb(223, 223, 223);" d="M 56.5,395.5 C 65.5663,400.429 71.0663,408.096 73,418.5C 74.1246,428.653 73.4579,438.653 71,448.5C 68.1165,455.88 63.2831,461.546 56.5,465.5C 56.5,442.167 56.5,418.833 56.5,395.5 Z"/>
  </g>
  <g>
    <path style="opacity: 0.92; fill: rgb(223, 223, 223);" d="M 892.5,429.5 C 892.751,435.892 892.418,442.225 891.5,448.5C 890.034,449.347 889.2,450.68 889,452.5C 888.5,473.497 888.333,494.497 888.5,515.5C 882.167,515.5 875.833,515.5 869.5,515.5C 869.667,494.164 869.5,472.831 869,451.5C 867.682,448.059 865.182,446.725 861.5,447.5C 862.797,442.733 862.797,438.066 861.5,433.5C 862.248,429.583 864.582,427.083 868.5,426C 877.547,424.204 883.547,427.704 886.5,436.5C 887.807,433.625 889.807,431.292 892.5,429.5 Z"/>
  </g>
  <g>
    <path style="opacity: 0.863; fill: rgb(223, 223, 223);" d="M 891.5,448.5 C 892.418,442.225 892.751,435.892 892.5,429.5C 893.749,427.864 895.416,426.697 897.5,426C 908.365,424.35 915.198,428.85 918,439.5C 918.5,464.831 918.667,490.164 918.5,515.5C 912.167,515.5 905.833,515.5 899.5,515.5C 899.667,494.164 899.5,472.831 899,451.5C 897.568,447.688 895.068,446.688 891.5,448.5 Z"/>
  </g>
  <g>
    <path style="opacity: 0.883; fill: rgb(223, 223, 223);" d="M 206.5,425.5 C 216.323,425.331 223.323,429.664 227.5,438.5C 228.489,434.893 228.823,431.226 228.5,427.5C 231.833,427.5 235.167,427.5 238.5,427.5C 239.919,428.451 241.585,428.784 243.5,428.5C 244.146,457.725 243.479,486.725 241.5,515.5C 234.173,514.338 230.006,510.004 229,502.5C 227.476,504.898 225.976,507.231 224.5,509.5C 225.12,503.074 224.453,497.074 222.5,491.5C 225.572,488.137 227.406,484.137 228,479.5C 230.536,468.266 228.036,458.433 220.5,450C 216.414,447.947 212.08,447.113 207.5,447.5C 207.797,440.08 207.464,432.746 206.5,425.5 Z"/>
  </g>
  <g>
    <path style="opacity: 0.836; fill: rgb(223, 223, 223);" d="M 238.5,427.5 C 241.5,427.5 244.5,427.5 247.5,427.5C 247.333,448.169 247.5,468.836 248,489.5C 248.672,493.03 250.838,494.363 254.5,493.5C 254.5,500.833 254.5,508.167 254.5,515.5C 250.167,515.5 245.833,515.5 241.5,515.5C 243.479,486.725 244.146,457.725 243.5,428.5C 241.585,428.784 239.919,428.451 238.5,427.5 Z"/>
  </g>
  <g>
    <path style="opacity: 0.983; fill: rgb(223, 223, 223);" d="M 276.5,427.5 C 276.5,454.167 276.5,480.833 276.5,507.5C 274.864,506.251 273.697,504.584 273,502.5C 271.528,498.277 270.528,493.943 270,489.5C 269.5,468.836 269.333,448.169 269.5,427.5C 271.833,427.5 274.167,427.5 276.5,427.5 Z"/>
  </g>
  <g>
    <path style="opacity: 0.969; fill: rgb(223, 223, 223);" d="M 276.5,427.5 C 280.5,427.5 284.5,427.5 288.5,427.5C 288.105,447.2 288.605,466.867 290,486.5C 291.969,493.305 296.469,496.972 303.5,497.5C 305.456,503.412 306.123,509.745 305.5,516.5C 296.622,518.702 288.289,517.535 280.5,513C 278.536,511.549 277.203,509.716 276.5,507.5C 276.5,480.833 276.5,454.167 276.5,427.5 Z"/>
  </g>
  <g>
    <path style="opacity: 0.81; fill: rgb(223, 223, 223);" d="M 323.5,427.5 C 322.506,468.428 322.173,509.428 322.5,550.5C 313.5,550.5 304.5,550.5 295.5,550.5C 295.5,543.167 295.5,535.833 295.5,528.5C 302.508,528.666 309.508,528.5 316.5,528C 317,527.5 317.5,527 318,526.5C 318.832,518.479 318.665,510.479 317.5,502.5C 315.268,508.728 311.268,513.395 305.5,516.5C 306.123,509.745 305.456,503.412 303.5,497.5C 312.178,495.898 317.011,490.565 318,481.5C 318.5,463.503 318.667,445.503 318.5,427.5C 320.167,427.5 321.833,427.5 323.5,427.5 Z"/>
  </g>
  <g>
    <path style="opacity: 0.864; fill: rgb(223, 223, 223);" d="M 323.5,427.5 C 328.167,427.5 332.833,427.5 337.5,427.5C 337.667,465.835 337.5,504.168 337,542.5C 335.647,546.35 333.147,549.017 329.5,550.5C 327.167,550.5 324.833,550.5 322.5,550.5C 322.173,509.428 322.506,468.428 323.5,427.5 Z"/>
  </g>
  <g>
    <path style="opacity: 0.882; fill: rgb(223, 223, 223);" d="M 447.5,428.5 C 453.979,427.509 460.646,427.176 467.5,427.5C 467.333,449.169 467.5,470.836 468,492.5C 469.699,493.406 471.533,493.739 473.5,493.5C 473.5,500.833 473.5,508.167 473.5,515.5C 467.075,515.87 460.742,515.37 454.5,514C 451.404,511.971 449.738,509.138 449.5,505.5C 450.222,505.918 450.722,506.584 451,507.5C 451.193,481.137 451.693,454.803 452.5,428.5C 450.833,428.5 449.167,428.5 447.5,428.5 Z"/>
  </g>
  <g>
    <path style="opacity: 0.865; fill: rgb(223, 223, 223);" d="M 609.5,426.5 C 612.425,426.46 615.091,427.293 617.5,429C 620.76,431.752 623.427,434.919 625.5,438.5C 626.487,435.232 626.82,431.898 626.5,428.5C 627.498,452.994 627.831,477.661 627.5,502.5C 624.66,506.286 621.66,510.119 618.5,514C 613.566,516.938 608.233,518.105 602.5,517.5C 602.5,509.833 602.5,502.167 602.5,494.5C 612.78,497.776 619.946,494.443 624,484.5C 627.303,474.253 626.637,464.253 622,454.5C 618.64,449.904 614.14,447.571 608.5,447.5C 609.462,440.588 609.795,433.588 609.5,426.5 Z"/>
  </g>
  <g>
    <path style="opacity: 0.874; fill: rgb(223, 223, 223);" d="M 626.5,428.5 C 632.645,427.51 638.978,427.177 645.5,427.5C 645.333,448.836 645.5,470.169 646,491.5C 647.789,493.229 649.956,493.896 652.5,493.5C 652.5,500.833 652.5,508.167 652.5,515.5C 646.824,515.666 641.157,515.499 635.5,515C 629.944,512.728 627.277,508.561 627.5,502.5C 627.831,477.661 627.498,452.994 626.5,428.5 Z"/>
  </g>
  <g>
    <path style="opacity: 0.971; fill: rgb(223, 223, 223);" d="M 861.5,433.5 C 862.797,438.066 862.797,442.733 861.5,447.5C 860.496,448.683 859.662,450.016 859,451.5C 858.5,472.831 858.333,494.164 858.5,515.5C 852.167,515.5 845.833,515.5 839.5,515.5C 839.5,486.167 839.5,456.833 839.5,427.5C 845.833,427.5 852.167,427.5 858.5,427.5C 858.183,430.572 858.516,433.572 859.5,436.5C 860.176,435.398 860.842,434.398 861.5,433.5 Z"/>
  </g>
  <g>
    <path style="opacity: 0.968; fill: rgb(223, 223, 223);" d="M 959.5,494.5 C 957.5,501.5 955.5,508.5 953.5,515.5C 952.5,515.5 951.5,515.5 950.5,515.5C 942.616,512.102 937.783,506.102 936,497.5C 934.563,474.205 934.063,450.872 934.5,427.5C 940.833,427.5 947.167,427.5 953.5,427.5C 953.333,445.836 953.5,464.17 954,482.5C 954.499,487.161 956.332,491.161 959.5,494.5 Z"/>
  </g>
  <g>
    <path style="opacity: 0.927; fill: rgb(223, 223, 223);" d="M 791.5,425.5 C 792.748,428.738 793.415,432.238 793.5,436C 793.415,439.762 792.748,443.262 791.5,446.5C 782.612,446.448 776.612,450.615 773.5,459C 778.155,459.499 782.821,459.666 787.5,459.5C 787.793,466.255 787.46,472.922 786.5,479.5C 782.167,479.5 777.833,479.5 773.5,479.5C 774.217,485.945 777.217,490.945 782.5,494.5C 782.825,502.019 782.492,509.352 781.5,516.5C 777.148,516.154 773.481,514.488 770.5,511.5C 771.833,498.517 772.499,485.184 772.5,471.5C 772.5,457.996 772.167,444.662 771.5,431.5C 777.426,427.348 784.093,425.348 791.5,425.5 Z"/>
  </g>
  <g>
    <path style="opacity: 0.86; fill: rgb(223, 223, 223);" d="M 791.5,425.5 C 798.845,425.349 805.178,427.683 810.5,432.5C 810.5,448.167 810.5,463.833 810.5,479.5C 802.5,479.5 794.5,479.5 786.5,479.5C 787.46,472.922 787.793,466.255 787.5,459.5C 793.868,459.83 800.202,459.496 806.5,458.5C 804,451.412 799,447.412 791.5,446.5C 792.748,443.262 793.415,439.762 793.5,436C 793.415,432.238 792.748,428.738 791.5,425.5 Z"/>
  </g>
  <g>
    <path style="opacity: 0.947; fill: rgb(223, 223, 223);" d="M 126.5,426.5 C 126.795,433.588 126.462,440.588 125.5,447.5C 115.741,447.459 109.574,452.126 107,461.5C 104.928,469.265 105.262,476.931 108,484.5C 112.603,493.884 120.103,497.551 130.5,495.5C 132.456,501.412 133.123,507.745 132.5,514.5C 122.816,518.579 113.149,518.412 103.5,514C 102.619,513.292 101.953,512.458 101.5,511.5C 102.833,498.517 103.499,485.184 103.5,471.5C 103.5,457.996 103.167,444.662 102.5,431.5C 109.573,425.79 117.573,424.124 126.5,426.5 Z"/>
  </g>
  <g>
    <path style="opacity: 0.877; fill: rgb(223, 223, 223);" d="M 525.5,425.5 C 538.76,425.934 548.593,431.934 555,443.5C 558.202,449.07 559.702,454.903 559.5,461C 553.578,462.641 547.745,464.474 542,466.5C 540.433,456.104 534.599,449.77 524.5,447.5C 525.464,440.254 525.797,432.92 525.5,425.5 Z"/>
  </g>
  <g>
    <path style="opacity: 0.968; fill: rgb(223, 223, 223);" d="M 697.5,425.5 C 698.833,432.833 698.833,440.167 697.5,447.5C 690.343,449.153 685.509,453.487 683,460.5C 680.203,470.743 681.37,480.41 686.5,489.5C 686.155,498.381 685.155,507.048 683.5,515.5C 675.906,512.408 670.406,507.074 667,499.5C 665.259,494.946 663.926,490.279 663,485.5C 662.333,476.5 662.333,467.5 663,458.5C 664.759,443.789 672.259,433.289 685.5,427C 689.418,425.844 693.418,425.344 697.5,425.5 Z"/>
  </g>
  <g>
    <path style="opacity: 0.965; fill: rgb(223, 223, 223);" d="M 609.5,426.5 C 609.795,433.588 609.462,440.588 608.5,447.5C 598.284,449.559 592.784,455.892 592,466.5C 590.881,475.13 592.548,483.13 597,490.5C 598.432,492.439 600.265,493.772 602.5,494.5C 602.5,502.167 602.5,509.833 602.5,517.5C 592.561,516.779 585.061,512.113 580,503.5C 573.024,489.975 570.69,475.642 573,460.5C 574.248,448.839 579.081,439.005 587.5,431C 594.256,425.972 601.589,424.472 609.5,426.5 Z"/>
  </g>
  <g>
    <path style="opacity: 0.855; fill: rgb(223, 223, 223);" d="M 810.5,432.5 C 819.802,439.762 824.969,449.428 826,461.5C 826.499,467.491 826.666,473.491 826.5,479.5C 821.167,479.5 815.833,479.5 810.5,479.5C 810.5,463.833 810.5,448.167 810.5,432.5 Z"/>
  </g>
  <g>
    <path style="opacity: 0.961; fill: rgb(223, 223, 223);" d="M 102.5,431.5 C 103.167,444.662 103.5,457.996 103.5,471.5C 103.499,485.184 102.833,498.517 101.5,511.5C 99.629,511.141 98.129,510.141 97,508.5C 89.393,497.581 85.893,485.414 86.5,472C 85.7826,458.02 89.6159,445.52 98,434.5C 99.2708,433.117 100.771,432.117 102.5,431.5 Z"/>
  </g>
  <g>
    <path style="opacity: 0.968; fill: rgb(223, 223, 223);" d="M 502.5,432.5 C 503.833,458.833 503.833,485.167 502.5,511.5C 493.18,504.977 487.68,495.977 486,484.5C 482.831,467.34 486.164,451.674 496,437.5C 497.758,435.235 499.925,433.568 502.5,432.5 Z"/>
  </g>
  <g>
    <path style="opacity: 0.966; fill: rgb(223, 223, 223);" d="M 771.5,431.5 C 772.167,444.662 772.5,457.996 772.5,471.5C 772.499,485.184 771.833,498.517 770.5,511.5C 760.631,504.11 755.131,494.11 754,481.5C 751.482,465.415 754.815,450.748 764,437.5C 766.086,434.906 768.586,432.906 771.5,431.5 Z"/>
  </g>
  <g>
    <path style="opacity: 0.975; fill: rgb(223, 223, 223);" d="M 206.5,425.5 C 207.464,432.746 207.797,440.08 207.5,447.5C 200.266,450.255 196.099,455.588 195,463.5C 192.521,474.918 195.021,484.918 202.5,493.5C 203.132,501.573 202.465,509.24 200.5,516.5C 195.635,515.485 191.301,513.318 187.5,510C 181.389,502.942 177.555,494.775 176,485.5C 175.333,476.167 175.333,466.833 176,457.5C 178.138,443.704 185.304,433.538 197.5,427C 200.432,426.047 203.432,425.547 206.5,425.5 Z"/>
  </g>
  <g>
    <path style="opacity: 0.973; fill: rgb(223, 223, 223);" d="M 427.5,425.5 C 426.957,433.197 426.29,440.864 425.5,448.5C 418.418,451.783 414.584,457.45 414,465.5C 412.15,476.106 414.65,485.439 421.5,493.5C 421.921,501.411 421.255,509.077 419.5,516.5C 410.791,513.967 404.291,508.633 400,500.5C 393.45,483.09 392.784,465.423 398,447.5C 402.917,433.399 412.75,426.065 427.5,425.5 Z"/>
  </g>
  <g>
    <path style="opacity: 0.966; fill: rgb(223, 223, 223);" d="M 38.5,448.5 C 38.5,456.5 38.5,464.5 38.5,472.5C 27.164,474.497 21.164,481.164 20.5,492.5C 28.5,492.5 36.5,492.5 44.5,492.5C 44.5,500.167 44.5,507.833 44.5,515.5C 35.1667,515.5 25.8333,515.5 16.5,515.5C 16.5,496.167 16.5,476.833 16.5,457.5C 23.0899,452.963 30.4232,449.963 38.5,448.5 Z"/>
  </g>
  <g>
    <path style="opacity: 0.974; fill: rgb(223, 223, 223);" d="M 16.5,457.5 C 16.5,476.833 16.5,496.167 16.5,515.5C 11.1667,515.5 5.83333,515.5 0.5,515.5C 0.333486,504.495 0.500153,493.495 1,482.5C 2.14685,471.514 7.31352,463.181 16.5,457.5 Z"/>
  </g>
  <g>
    <path style="opacity: 0.924; fill: rgb(223, 223, 223);" d="M 1002.5,427.5 C 1002.5,465.5 1002.5,503.5 1002.5,541.5C 1000.57,545.097 997.907,548.097 994.5,550.5C 978.833,550.5 963.167,550.5 947.5,550.5C 947.5,543.167 947.5,535.833 947.5,528.5C 958.838,528.667 970.172,528.5 981.5,528C 982.126,527.25 982.626,526.416 983,525.5C 983.831,517.812 983.665,510.145 982.5,502.5C 978.893,512.97 971.56,517.97 960.5,517.5C 956.859,517.685 953.526,517.019 950.5,515.5C 951.5,515.5 952.5,515.5 953.5,515.5C 955.5,508.5 957.5,501.5 959.5,494.5C 973.396,499.849 981.23,494.849 983,479.5C 983.5,462.17 983.667,444.837 983.5,427.5C 989.833,427.5 996.167,427.5 1002.5,427.5 Z"/>
  </g>
  <g>
    <path style="opacity: 0.952; fill: rgb(223, 223, 223);" d="M 525.5,425.5 C 525.797,432.92 525.464,440.254 524.5,447.5C 513.755,448.74 507.255,454.74 505,465.5C 503.237,474.573 504.904,482.906 510,490.5C 518.312,496.736 526.812,497.069 535.5,491.5C 536.492,499.316 536.826,507.316 536.5,515.5C 535.391,516.29 534.058,516.79 532.5,517C 526.5,517.667 520.5,517.667 514.5,517C 510.061,515.944 506.061,514.111 502.5,511.5C 503.833,485.167 503.833,458.833 502.5,432.5C 509.159,427.29 516.826,424.956 525.5,425.5 Z"/>
  </g>
  <g>
    <path style="opacity: 0.863; fill: rgb(223, 223, 223);" d="M 536.5,515.5 C 536.826,507.316 536.492,499.316 535.5,491.5C 538.289,486.918 540.789,482.251 543,477.5C 548.822,479.275 554.656,480.942 560.5,482.5C 558.96,494.416 553.626,504.249 544.5,512C 542.182,513.993 539.516,515.159 536.5,515.5 Z"/>
  </g>
  <g>
    <path style="opacity: 0.872; fill: rgb(223, 223, 223);" d="M 807.5,487.5 C 812.996,490.082 817.996,493.415 822.5,497.5C 819.202,505.13 813.868,510.797 806.5,514.5C 806.173,505.318 806.507,496.318 807.5,487.5 Z"/>
  </g>
  <g>
    <path style="opacity: 0.814; fill: rgb(223, 223, 223);" d="M 44.5,492.5 C 54.1667,492.5 63.8333,492.5 73.5,492.5C 73.5,500.167 73.5,507.833 73.5,515.5C 63.8333,515.5 54.1667,515.5 44.5,515.5C 44.5,507.833 44.5,500.167 44.5,492.5 Z"/>
  </g>
  <g>
    <path style="opacity: 0.923; fill: rgb(223, 223, 223);" d="M 686.5,489.5 C 692.704,495.425 700.037,497.092 708.5,494.5C 709.49,500.645 709.823,506.978 709.5,513.5C 707.507,515.163 705.174,516.33 702.5,517C 697.167,517.667 691.833,517.667 686.5,517C 685.263,516.768 684.263,516.268 683.5,515.5C 685.155,507.048 686.155,498.381 686.5,489.5 Z"/>
  </g>
  <g>
    <path style="opacity: 0.908; fill: rgb(223, 223, 223);" d="M 222.5,491.5 C 224.453,497.074 225.12,503.074 224.5,509.5C 222.178,513.319 218.845,515.819 214.5,517C 209.648,517.815 204.981,517.648 200.5,516.5C 202.465,509.24 203.132,501.573 202.5,493.5C 209.636,496.653 216.302,495.987 222.5,491.5 Z"/>
  </g>
  <g>
    <path style="opacity: 0.899; fill: rgb(223, 223, 223);" d="M 427.5,425.5 C 436.748,425.621 443.081,429.954 446.5,438.5C 447.487,435.232 447.82,431.898 447.5,428.5C 449.167,428.5 450.833,428.5 452.5,428.5C 451.693,454.803 451.193,481.137 451,507.5C 450.722,506.584 450.222,505.918 449.5,505.5C 449.719,504.325 449.386,503.325 448.5,502.5C 442.789,515.523 433.122,520.19 419.5,516.5C 421.255,509.077 421.921,501.411 421.5,493.5C 434.925,498.871 443.425,494.537 447,480.5C 447.667,474.5 447.667,468.5 447,462.5C 444.356,450.665 437.189,445.999 425.5,448.5C 426.29,440.864 426.957,433.197 427.5,425.5 Z"/>
  </g>
  <g>
    <path style="opacity: 0.879; fill: rgb(223, 223, 223);" d="M 807.5,487.5 C 806.507,496.318 806.173,505.318 806.5,514.5C 804.363,515.787 802.03,516.621 799.5,517C 793.319,517.819 787.319,517.653 781.5,516.5C 782.492,509.352 782.825,502.019 782.5,494.5C 792.246,497.803 799.913,495.303 805.5,487C 806.437,486.308 807.103,486.475 807.5,487.5 Z"/>
  </g>
  <g>
    <path style="opacity: 0.912; fill: rgb(223, 223, 223);" d="M 295.5,528.5 C 295.5,535.833 295.5,543.167 295.5,550.5C 291.167,550.5 286.833,550.5 282.5,550.5C 282.5,543.167 282.5,535.833 282.5,528.5C 286.833,528.5 291.167,528.5 295.5,528.5 Z"/>
  </g>
</svg>